<svg viewBox="0 0 260 80" version="1.1" xmlns="http://www.w3.org/2000/svg"><g stroke="none" stroke-width="1" fill="currentColor" fill-rule="evenodd"><g fill="currentColor"><path d="M59.4759997,54 L59.4759997,42.012 L65.4879997,42.012 L65.4879997,54 L71.4639997,54 L71.4639997,27 L65.4879997,27 L65.4879997,38.988 L59.4759997,38.988 L59.4759997,27 L53.4639997,27 L53.4639997,54 L59.4759997,54 Z M85.1902855,54 C86.9662855,54 87.9742855,53.004 88.2142855,51.012 L88.2142855,51.012 L88.2142855,54 L94.1902855,54 L94.1902855,38.988 C94.1902855,37.356 93.6022855,35.952 92.4262855,34.776 C91.2502855,33.6 89.8462855,33.012 88.2142855,33.012 L88.2142855,33.012 L82.2022855,33.012 C78.6742855,33.012 76.6702855,35.004 76.1902855,38.988 L76.1902855,38.988 L79.2142855,38.988 C79.4302855,36.996 80.4262855,36 82.2022855,36 L82.2022855,36 L85.1902855,36 C86.0302855,36 86.7442855,36.294 87.3322855,36.882 C87.9202855,37.47 88.2142855,38.172 88.2142855,38.988 L88.2142855,38.988 L88.2142855,42.012 L82.2022855,42.012 C80.5702855,42.012 79.1602855,42.6 77.9722855,43.776 C76.7842855,44.952 76.1902855,46.356 76.1902855,47.988 C76.1902855,49.644 76.7842855,51.06 77.9722855,52.236 C79.1602855,53.412 80.5702855,54 82.2022855,54 L82.2022855,54 L85.1902855,54 Z M85.1902855,51.012 C84.3742855,51.012 83.6722855,50.712 83.0842855,50.112 C82.4962855,49.512 82.2022855,48.804 82.2022855,47.988 C82.2022855,47.172 82.4962855,46.47 83.0842855,45.882 C83.6722855,45.294 84.3742855,45 85.1902855,45 L85.1902855,45 L88.2142855,45 L88.2142855,47.988 C88.2142855,48.804 87.9202855,49.512 87.3322855,50.112 C86.7442855,50.712 86.0302855,51.012 85.1902855,51.012 Z M104.928571,60.012 L104.928571,54 L110.940571,54 C112.572571,54 113.976571,53.412 115.152571,52.236 C116.328571,51.06 116.916571,49.644 116.916571,47.988 L116.916571,47.988 L116.916571,38.988 C116.916571,37.356 116.328571,35.952 115.152571,34.776 C113.976571,33.6 112.572571,33.012 110.940571,33.012 L110.940571,33.012 L107.916571,33.012 C106.932571,33.012 106.188571,33.258 105.684571,33.75 C105.180571,34.242 104.928571,34.992 104.928571,36 L104.928571,36 L104.928571,33.012 L98.9165713,33.012 L98.9165713,60.012 L104.928571,60.012 Z M107.916571,51.012 L104.928571,51.012 L104.928571,38.988 C104.928571,38.172 105.222571,37.47 105.810571,36.882 C106.398571,36.294 107.100571,36 107.916571,36 C108.756571,36 109.470571,36.294 110.058571,36.882 C110.646571,37.47 110.940571,38.172 110.940571,38.988 L110.940571,38.988 L110.940571,47.988 C110.940571,48.828 110.646571,49.542 110.058571,50.13 C109.470571,50.718 108.756571,51.012 107.916571,51.012 L107.916571,51.012 Z M127.654857,60.012 L127.654857,54 L133.666857,54 C135.298857,54 136.702857,53.412 137.878857,52.236 C139.054857,51.06 139.642857,49.644 139.642857,47.988 L139.642857,47.988 L139.642857,38.988 C139.642857,37.356 139.054857,35.952 137.878857,34.776 C136.702857,33.6 135.298857,33.012 133.666857,33.012 L133.666857,33.012 L130.642857,33.012 C129.658857,33.012 128.914857,33.258 128.410857,33.75 C127.906857,34.242 127.654857,34.992 127.654857,36 L127.654857,36 L127.654857,33.012 L121.642857,33.012 L121.642857,60.012 L127.654857,60.012 Z M130.642857,51.012 L127.654857,51.012 L127.654857,38.988 C127.654857,38.172 127.948857,37.47 128.536857,36.882 C129.124857,36.294 129.826857,36 130.642857,36 C131.482857,36 132.196857,36.294 132.784857,36.882 C133.372857,37.47 133.666857,38.172 133.666857,38.988 L133.666857,38.988 L133.666857,47.988 C133.666857,48.828 133.372857,49.542 132.784857,50.13 C132.196857,50.718 131.482857,51.012 130.642857,51.012 L130.642857,51.012 Z M156.393143,63 C158.025143,63 159.429143,62.406 160.605143,61.218 C161.781143,60.03 162.369143,58.62 162.369143,56.988 L162.369143,56.988 L162.369143,33.012 L156.393143,33.012 L156.393143,47.988 C156.393143,48.804 156.099143,49.512 155.511143,50.112 C154.923143,50.712 154.209143,51.012 153.369143,51.012 C152.553143,51.012 151.851143,50.712 151.263143,50.112 C150.675143,49.512 150.381143,48.804 150.381143,47.988 L150.381143,47.988 L150.381143,33.012 L144.369143,33.012 L144.369143,47.988 C144.369143,49.644 144.963143,51.06 146.151143,52.236 C147.339143,53.412 148.749143,54 150.381143,54 L150.381143,54 L153.369143,54 C155.145143,54 156.153143,53.004 156.393143,51.012 L156.393143,51.012 L156.393143,56.988 C156.393143,57.828 156.099143,58.542 155.511143,59.13 C154.923143,59.718 154.209143,60.012 153.369143,60.012 L153.369143,60.012 L150.381143,60.012 C148.533143,60.012 147.537143,59.004 147.393143,56.988 L147.393143,56.988 L144.369143,56.988 C144.849143,60.996 146.853143,63 150.381143,63 L150.381143,63 L156.393143,63 Z M173.107429,54 L173.107429,43.488 L182.107429,54 L188.119429,54 L176.095429,40.5 L188.119429,27 L182.827429,27 L173.107429,38.016 L173.107429,27 L167.095429,27 L167.095429,54 L173.107429,54 Z M198.821715,29.988 L198.821715,27 L192.809715,27 L192.809715,29.988 L198.821715,29.988 Z M198.821715,54 L198.821715,33.012 L192.809715,33.012 L192.809715,54 L198.821715,54 Z M215.536,54 L215.536,51.012 L215.248,51.012 C214.72,51.012 214.132,50.754 213.484,50.238 C212.836,49.722 212.512,48.972 212.512,47.988 L212.512,47.988 L212.512,36 L215.536,36 L215.536,33.012 L212.512,33.012 L212.512,27 L206.536,27 L206.536,33.012 L203.512,33.012 L203.512,36 L206.536,36 L206.536,47.988 C206.536,49.644 207.124,51.06 208.3,52.236 C209.476,53.412 210.88,54 212.512,54 L212.512,54 L215.536,54 Z" fill-rule="nonzero"></path><g transform="translate(25, 40) translate(-29.5, -40) translate(19, 11)"><g><path d="M15.2727273,42.8246842 L15.2727273,20.5201415 C18.7720909,18.6043813 21,14.7437102 21,10.5030579 C21,6.03114368 18.5269636,1.9853404 14.6999045,0.19630879 C14.4053318,0.0575107861 14.0646545,0.088911661 13.7951864,0.278237457 C13.5258136,0.467051839 13.3636364,0.788731811 13.3636364,1.13383459 L13.3636364,9.316473 L7.63636364,9.316473 L7.63636364,1.13383459 C7.63636364,0.788731811 7.47418636,0.467051839 7.20481364,0.27833974 C6.93544091,0.089013944 6.59466818,0.057613069 6.30009545,0.196411073 C2.47303636,1.9853404 0,6.03124596 0,10.5031601 C0,14.7438125 2.22790909,18.6043813 5.72727273,20.5202438 L5.72727273,42.8246842 C3.92537727,44.373453 2.86363636,46.7207452 2.86363636,49.2068353 C2.86363636,53.7186398 6.28940455,57.3894737 10.5,57.3894737 C14.7105955,57.3894737 18.1363636,53.7186398 18.1363636,49.2068353 C18.1363636,46.7206429 17.0746227,44.3733508 15.2727273,42.8246842 Z M10.5,55.3438141 C7.34179091,55.3438141 4.77272727,52.59097 4.77272727,49.2068353 C4.77272727,47.2060779 5.69090455,45.324787 7.22858182,44.1741035 C7.48392273,43.9828343 7.63636364,43.6696439 7.63636364,43.3355876 L7.63636364,19.8734062 C7.63636364,19.4668314 7.41166364,19.0993286 7.06449545,18.9364941 C3.93282273,17.4676083 1.90909091,14.1574242 1.90909091,10.5031601 C1.90909091,7.39570092 3.36887727,4.53996011 5.72727273,2.85341605 L5.72727273,10.3393028 C5.72727273,10.9041094 6.15471818,11.3621326 6.68181818,11.3621326 L14.3181818,11.3621326 C14.8452818,11.3621326 15.2727273,10.9041094 15.2727273,10.3393028 L15.2727273,2.85341605 C17.6311227,4.53996011 19.0909091,7.39570092 19.0909091,10.5031601 C19.0909091,14.1575265 17.0671773,17.4677105 13.9355045,18.9364941 C13.5883364,19.0993286 13.3636364,19.4668314 13.3636364,19.8734062 L13.3636364,43.3355876 C13.3636364,43.6697461 13.5160773,43.9828343 13.7714182,44.1741035 C15.3090955,45.324787 16.2272727,47.2060779 16.2272727,49.2068353 C16.2272727,52.59097 13.6582091,55.3438141 10.5,55.3438141 Z" fill-rule="nonzero"></path><path d="M10.5,45.1155161 C8.39465455,45.1155161 6.68181818,46.9508819 6.68181818,49.2068353 C6.68181818,51.4627887 8.39465455,53.2981545 10.5,53.2981545 C12.6053455,53.2981545 14.3181818,51.4627887 14.3181818,49.2068353 C14.3181818,46.9508819 12.6053455,45.1155161 10.5,45.1155161 Z M10.5,51.2524949 C9.44713636,51.2524949 8.59090909,50.3350165 8.59090909,49.2068353 C8.59090909,48.078654 9.44713636,47.1611757 10.5,47.1611757 C11.5528636,47.1611757 12.4090909,48.078654 12.4090909,49.2068353 C12.4090909,50.3350165 11.5528636,51.2524949 10.5,51.2524949 Z" fill-rule="nonzero"></path><path d="M10.5,42.0470267 C11.0271,42.0470267 11.4545455,41.5890035 11.4545455,41.0241969 L11.4545455,23.6360902 C11.4545455,23.0712836 11.0271,22.6132604 10.5,22.6132604 C9.9729,22.6132604 9.54545455,23.0712836 9.54545455,23.6360902 L9.54545455,41.0241969 C9.54545455,41.5890035 9.9729,42.0470267 10.5,42.0470267 Z"></path></g></g></g></g></svg>
